<svg width="58" height="58" viewBox="0 0 58 58" fill="none" xmlns="http://www.w3.org/2000/svg">
<path d="M25.376 55.5825H10.8757C6.211 55.5825 2.41748 51.789 2.41748 47.1244V30.208C2.41748 25.5433 6.211 21.7498 10.8757 21.7498H35.0415C36.5275 21.7498 37.9895 22.1417 39.2706 22.8802C39.8478 23.2163 40.5878 23.0158 40.9209 22.4401C41.257 21.8629 41.058 21.1228 40.4808 20.7898C39.9036 20.4567 39.2917 20.2005 38.6677 19.9774V15.7076C38.6677 7.04597 31.6202 0 22.9601 0C14.2999 0 7.24943 7.04748 7.24943 15.7076V20C3.03994 21.5011 0 25.4876 0 30.208V47.1244C0 53.1198 4.87867 58 10.8757 58H25.376C26.0437 58 26.5848 57.459 26.5848 56.7913C26.5848 56.1236 26.0437 55.5825 25.376 55.5825ZM9.66693 15.7076C9.66693 8.3783 15.6292 2.41598 22.9586 2.41598C30.2879 2.41598 36.2502 8.3783 36.2502 15.7076V19.4122C35.8493 19.3685 35.4484 19.3323 35.0415 19.3323H10.8757C10.4627 19.3323 10.0678 19.4092 9.66693 19.4559V15.7076ZM22.9586 36.2487C23.6262 36.2487 24.1673 36.7898 24.1673 37.4574V42.2909C24.1673 42.9586 23.6262 43.4996 22.9586 43.4996C22.2909 43.4996 21.7498 42.9586 21.7498 42.2909V37.4574C21.7498 36.7898 22.2909 36.2487 22.9586 36.2487ZM42.2924 26.5818C33.6308 26.5818 26.5848 33.6293 26.5848 42.2894C26.5848 50.9495 33.6323 57.997 42.2924 57.997C50.9525 57.997 58 50.9495 58 42.2894C58 33.6293 50.9525 26.5818 42.2924 26.5818ZM42.2924 55.5825C34.9631 55.5825 29.0008 49.6187 29.0008 42.2909C29.0008 34.9631 34.9631 28.9993 42.2924 28.9993C49.6217 28.9993 55.584 34.9631 55.584 42.2909C55.584 49.6187 49.6217 55.5825 42.2924 55.5825ZM50.3874 39.0113C50.8516 39.4891 50.8395 40.2562 50.3587 40.7204L43.8267 47.0369C42.9571 47.8945 41.8086 48.3256 40.6586 48.3256C39.5087 48.3256 38.3647 47.8975 37.4876 47.043L34.1914 43.7875C33.7152 43.3218 33.7106 42.5547 34.1794 42.0784C34.6481 41.6067 35.4137 41.6006 35.8885 42.0694L39.1831 45.3203C39.997 46.1176 41.3248 46.1085 42.1387 45.3112L48.6782 38.9842C49.162 38.523 49.9247 38.532 50.3874 39.0128H50.3904L50.3874 39.0113Z" fill="#E61C83"/>
</svg>
