<svg width="60" height="61" viewBox="0 0 60 61" fill="none" xmlns="http://www.w3.org/2000/svg">
<path d="M59.8799 21.6031V41.9377C59.8799 48.2435 54.8422 53.3754 48.6521 53.3754H31.187V58.4591H41.1677C41.8563 58.4591 42.4147 59.028 42.4147 59.7295C42.4147 60.4311 41.8563 60.9999 41.1677 60.9999H18.7122C18.0236 60.9999 17.4651 60.4311 17.4651 59.7295C17.4651 59.028 18.0236 58.4591 18.7122 58.4591H28.6929V53.3754H11.2277C5.03768 53.3754 0 48.2435 0 41.9377V21.6031C0 16.3807 3.46303 11.8257 8.42178 10.5271C9.09268 10.3462 9.7695 10.7643 9.94117 11.4418C10.1109 12.1212 9.70833 12.8147 9.04532 12.9896C5.18764 13.9987 2.49614 17.5446 2.49614 21.6051V41.9397C2.49614 46.8445 6.41302 50.8366 11.2297 50.8366H48.6561C53.4708 50.8366 57.3897 46.8465 57.3897 41.9397V21.6051C57.3897 17.5426 54.6982 14.0007 50.8405 12.9896C50.1735 12.8147 49.773 12.1232 49.9446 11.4418C50.1163 10.7623 50.7931 10.3462 51.464 10.5271C56.4208 11.8257 59.8858 16.3827 59.8858 21.6031H59.8799ZM24.9496 17.7898C24.9496 14.9857 27.1873 12.7061 29.9399 12.7061C32.6926 12.7061 34.9303 14.9857 34.9303 17.7898C34.9303 20.594 32.6926 22.8735 29.9399 22.8735C27.1873 22.8735 24.9496 20.594 24.9496 17.7898ZM27.4458 17.7898C27.4458 19.1909 28.5626 20.3306 29.9399 20.3306C31.3173 20.3306 32.4341 19.1889 32.4341 17.7898C32.4341 16.3907 31.3173 15.249 29.9399 15.249C28.5626 15.249 27.4458 16.3907 27.4458 17.7898ZM16.2023 21.5468L17.8144 20.5879C17.5796 19.611 17.4651 18.6883 17.4651 17.7918C17.4651 16.8953 17.5796 15.9726 17.8144 14.9937L16.2023 14.0389C14.4204 12.9755 13.8166 10.6377 14.8565 8.82254C15.8964 7.00738 18.1933 6.39026 19.9771 7.44961L21.5774 8.40241C22.9172 7.16014 24.4859 6.23749 26.2007 5.68872V3.81324C26.2007 1.71063 27.8799 0 29.9439 0C32.0079 0 33.6871 1.71063 33.6871 3.81324V5.68872C35.4019 6.23749 36.9706 7.16014 38.3104 8.40241L39.9127 7.45162C40.775 6.93501 41.7813 6.80032 42.7502 7.05561C43.7191 7.31492 44.5261 7.9421 45.0313 8.82254C46.0712 10.6377 45.4673 12.9775 43.6855 14.0389L42.0734 14.9977C42.3082 15.9787 42.4226 16.9013 42.4226 17.7958C42.4226 18.6903 42.3082 19.613 42.0734 20.592L43.6855 21.5508C44.5518 22.0634 45.1654 22.8875 45.418 23.8745C45.6745 24.8575 45.5344 25.8847 45.0313 26.7651C44.5281 27.6435 43.7191 28.2727 42.7502 28.532C41.7754 28.7913 40.775 28.6466 39.9127 28.136L38.3104 27.1852C36.9726 28.4275 35.4019 29.3502 33.6871 29.8989V31.7744C33.6871 33.877 32.0079 35.5877 29.9439 35.5877C27.8799 35.5877 26.2007 33.877 26.2007 31.7744V29.8989C24.4859 29.3502 22.9192 28.4275 21.5774 27.1852L19.9771 28.136C18.1933 29.1954 15.8984 28.5803 14.8565 26.7651C13.8166 24.9499 14.4204 22.6121 16.2023 21.5528V21.5468ZM17.0113 25.4786C17.3586 26.0837 18.1242 26.2867 18.7201 25.9329L21.1432 24.4936C21.3386 24.3771 21.5557 24.3208 21.7727 24.3208C22.1101 24.3208 22.4416 24.4575 22.6804 24.7228C24.0518 26.2123 25.7961 27.2375 27.722 27.6837C28.2903 27.8164 28.6929 28.329 28.6929 28.922V31.7704C28.6929 32.4719 29.2552 33.0408 29.9399 33.0408C30.6247 33.0408 31.187 32.4719 31.187 31.7704V28.922C31.187 28.329 31.5896 27.8144 32.1579 27.6837C34.0857 27.2355 35.834 26.2123 37.1995 24.7228C37.602 24.2886 38.2354 24.1961 38.7386 24.4936L41.1637 25.9349C41.4498 26.1058 41.7952 26.15 42.1089 26.0676C42.4305 25.9812 42.7009 25.7721 42.8706 25.4806C43.0383 25.1851 43.0857 24.8454 43.0008 24.5178C42.916 24.1901 42.7107 23.9147 42.4246 23.7459L39.9817 22.2925C39.4805 21.993 39.2457 21.3819 39.4174 20.8151C39.7607 19.6934 39.9206 18.7326 39.9206 17.7958C39.9206 16.8591 39.7607 15.8942 39.4174 14.7746C39.2457 14.2097 39.4766 13.5986 39.9817 13.2971L42.4246 11.8458C43.0186 11.492 43.2179 10.7121 42.8745 10.105C42.7068 9.81353 42.4345 9.60448 42.1128 9.51804C41.7991 9.43764 41.4558 9.47785 41.1677 9.65072L38.7426 11.092C38.2453 11.3895 37.604 11.301 37.2034 10.8628C35.836 9.37331 34.0916 8.35216 32.1618 7.90189C31.5935 7.76922 31.191 7.25663 31.191 6.66363V3.81727C31.191 3.11573 30.6286 2.54685 29.9439 2.54685C29.2592 2.54685 28.6968 3.11573 28.6968 3.81727V6.66363C28.6968 7.25663 28.2943 7.77123 27.726 7.90189C25.8001 8.35015 24.0538 9.37331 22.6843 10.8628C22.2877 11.297 21.6444 11.3895 21.1472 11.092L18.7241 9.65072C18.1301 9.30096 17.3625 9.49995 17.0152 10.109C16.6679 10.7161 16.8712 11.494 17.4671 11.8498L19.91 13.3011C20.4112 13.6007 20.646 14.2137 20.4723 14.7806C20.129 15.8962 19.9692 16.8571 19.9692 17.7999C19.9692 18.7426 20.129 19.7015 20.4723 20.8191C20.648 21.386 20.4171 21.9991 19.91 22.2986L17.4671 23.7519C16.8732 24.1057 16.6739 24.8856 17.0172 25.4907L17.0113 25.4806V25.4786Z" fill="#E61C83"/>
</svg>
