<svg width="63" height="63" viewBox="0 0 63 63" fill="none" xmlns="http://www.w3.org/2000/svg">
<path d="M44.625 0C34.3223 0 26.25 4.61211 26.25 10.5V21.9928C23.8713 21.3626 21.2126 21 18.375 21C8.07234 21 0 25.6121 0 31.5V52.5C0 58.3879 8.07234 63 18.375 63C28.6777 63 36.75 58.3879 36.75 52.5V51.4889C39.1991 52.1405 41.8822 52.5 44.625 52.5C54.9277 52.5 63 47.8879 63 42V10.5C63 4.61211 54.9277 0 44.625 0ZM60.375 31.4985C60.375 35.7664 53.1608 39.3735 44.625 39.3735C41.8394 39.3735 39.1486 38.9773 36.75 38.2599V31.4985C36.75 31.1543 36.7164 30.8162 36.6628 30.4827C39.1257 31.1466 41.8287 31.4985 44.625 31.4985C51.4001 31.4985 57.1901 29.4976 60.375 26.4581V31.4985ZM2.62653 36.9596C5.80988 39.9991 11.6014 42 18.3765 42C25.1517 42 30.9417 39.9991 34.1265 36.9596V42C34.1265 46.2679 26.9124 49.875 18.3765 49.875C9.84069 49.875 2.62653 46.2679 2.62653 42V36.9596ZM44.625 2.62501C53.1608 2.62501 60.375 6.23208 60.375 10.5C60.375 14.7679 53.1608 18.375 44.625 18.375C36.0892 18.375 28.875 14.7679 28.875 10.5C28.875 6.23208 36.0892 2.62501 44.625 2.62501ZM28.8765 15.9596C32.0599 18.9991 37.8514 21 44.6265 21C51.4017 21 57.1917 18.9991 60.3765 15.9596V21C60.3765 25.2679 53.1624 28.875 44.6265 28.875C41.2214 28.875 37.983 28.3151 35.2402 27.2657C33.8802 25.4591 31.6698 23.9325 28.8765 22.8341V15.9596ZM18.3765 23.6235C26.9124 23.6235 34.1265 27.2306 34.1265 31.4985C34.1265 35.7664 26.9124 39.3735 18.3765 39.3735C9.84069 39.3735 2.62653 35.7664 2.62653 31.4985C2.62653 27.2306 9.84069 23.6235 18.3765 23.6235ZM18.3765 60.3735C9.84069 60.3735 2.62653 56.7664 2.62653 52.4985V47.4581C5.80988 50.4976 11.6014 52.4985 18.3765 52.4985C25.1517 52.4985 30.9417 50.4976 34.1265 47.4581V52.4985C34.1265 56.7664 26.9124 60.3735 18.3765 60.3735ZM44.625 49.8735C41.8501 49.8735 39.1486 49.4819 36.75 48.766V40.9904C39.196 41.6421 41.8761 41.9954 44.625 41.9954C51.4001 41.9954 57.1901 39.9946 60.375 36.955V41.9954C60.375 46.2633 53.1608 49.8704 44.625 49.8704V49.8735Z" fill="#E61C83"/>
</svg>
