<svg width="8" height="7" viewBox="0 0 8 7" fill="none" xmlns="http://www.w3.org/2000/svg">
<path d="M7.2627 0.597215V1.74068C6.55238 1.30147 3.44911 1.11215 3.44911 1.11215C3.44911 1.11215 1.22579 0.803189 1.4045 1.84216C1.36058 2.57822 2.64793 2.75239 4.78038 2.57216C6.88406 2.59488 8.00633 3.10073 7.83065 4.2442C7.65193 5.85111 6.01775 6.27367 4.08219 6.14342C2.54797 6.09041 1.21064 5.9329 0.171676 5.51034L0.155016 4.55316C1.23185 4.87879 2.49042 5.06961 3.87167 5.16957C5.52402 5.25742 6.30703 4.93179 6.53269 4.34264C6.62962 3.51571 5.16356 3.46119 3.35218 3.54752C1.32878 3.67322 0.38371 3.18251 0.268606 2.21624C0.212568 0.735036 1.08494 0.0974191 2.71911 0.154971C4.56381 0.14134 6.21313 0.223127 7.2627 0.597215Z" fill="black" stroke="black" stroke-width="0.297207" stroke-miterlimit="10"/>
</svg>
