<svg width="9" height="7" viewBox="0 0 9 7" fill="none" xmlns="http://www.w3.org/2000/svg">
<path d="M8.42251 0.753341L8.39803 1.95167C7.37263 1.36092 6.09013 1.23084 4.31483 1.16503C2.10794 1.13289 1.34119 2.02972 1.32589 3.41171C1.42996 4.82736 2.64359 5.41964 4.62244 5.44565C6.38091 5.40739 7.54098 5.13345 7.66342 3.91216H4.0317V2.9939H8.69646C9.00867 4.5779 8.33528 5.70736 6.65027 6.19557C5.32032 6.44197 4.01486 6.47717 2.74307 6.21546C1.1407 5.87571 0.298965 5.08753 0.234687 3.83717C0.167348 1.97922 0.742791 0.689063 3.1869 0.311046C5.17799 0.11362 6.88443 0.280438 8.42251 0.751812V0.753341Z" fill="black" stroke="black" stroke-width="0.44581" stroke-miterlimit="10"/>
</svg>
