<svg width="60" height="60" viewBox="0 0 60 60" fill="none" xmlns="http://www.w3.org/2000/svg">
<path d="M1.05244 7.66738C3.09715 11.5501 5.64502 16.3827 10.2877 18.7727C11.7984 19.5506 13.8803 19.9279 15.7531 19.9279C16.7555 19.9279 18.8002 19.7174 20.7859 18.4198C21.7704 20.3169 22.3339 22.1703 22.511 23.7953C22.579 24.4204 23.1014 24.8979 23.7317 24.9107H23.7548C24.3747 24.9107 24.9023 24.4551 24.9921 23.8402C25.1423 22.8031 25.897 19.367 29.0328 17.0053C29.8055 17.9885 30.8028 18.7958 32.0081 19.2977C32.9977 19.7097 34.0438 19.9151 35.0835 19.9151C36.3439 19.9151 37.5967 19.6148 38.7416 19.023C41.6669 17.5033 44.4227 14.8553 46.932 11.1497C47.5225 10.2769 47.6649 9.20765 47.3222 8.21674C46.9603 7.17192 46.09 6.33889 44.99 5.98463C41.7054 4.92954 36.8124 4.11192 32.1493 6.1977C28.5771 7.79573 26.7737 11.45 27.8108 14.7937C25.9407 16.1183 24.7059 17.742 23.9127 19.2541C23.5905 18.4287 23.1695 17.5867 22.6997 16.7383C23 16.3853 23.2953 16.0105 23.5674 15.5754C24.9729 13.3381 25.3669 10.5669 24.6546 7.9703C23.9614 5.44297 22.3249 3.40467 20.044 2.23278C12.5557 -1.62303 5.5526 0.367768 2.0395 1.89264C1.15898 2.28027 0.477406 3.00035 0.174486 3.87318C-0.115599 4.71262 -0.0424363 5.61368 0.382422 6.40564L1.05244 7.66609V7.66866V7.66738ZM33.1723 8.47859C37.1051 6.71626 41.3575 7.44404 44.2301 8.36307C44.5883 8.47859 44.8552 8.72118 44.9605 9.03052C45.0208 9.19995 45.0503 9.46565 44.8629 9.74546C42.5897 13.1007 40.1394 15.4753 37.5903 16.8012C36.1771 17.5315 34.4494 17.6034 32.9695 16.9886C31.5896 16.4161 30.5962 15.3431 30.1687 13.9735C29.5115 11.8608 30.7733 9.5478 33.171 8.47859H33.1723ZM3.03939 4.18508C6.14176 2.83221 12.3324 1.06988 18.9055 4.45206C20.5536 5.29921 21.7434 6.78429 22.2479 8.62748C22.7754 10.5503 22.6009 12.6309 21.2698 14.4754C19.1596 11.5656 16.0919 8.743 11.8292 6.52244C11.2272 6.2054 10.4635 6.44286 10.1439 7.05255C9.82429 7.66481 10.0643 8.41954 10.6766 8.73786C14.7416 10.8532 17.5975 13.5435 19.4998 16.2762C17.5475 17.5944 15.4822 17.4212 15.2563 17.4019C13.8791 17.3865 12.5737 17.1298 11.4313 16.5419C7.49078 14.5139 5.24327 10.2538 3.26273 6.4942L2.58501 5.21706C2.4926 5.04506 2.47719 4.86408 2.53752 4.68695C2.6094 4.47131 2.79552 4.28648 3.03811 4.17994V4.18764L3.03939 4.18508ZM57.9591 24.0443C56.7166 22.9148 55.1045 22.3564 53.4358 22.4142C51.7608 22.4938 50.2154 23.219 49.0884 24.4589L39.7582 34.7146C38.9727 31.9446 36.421 29.9063 33.4007 29.9063H8.7538C3.9289 29.9063 0.00248547 33.8315 0.00248547 38.6577V51.1583C0.00248547 55.9832 3.92762 59.9096 8.7538 59.9096H23.6675C30.4331 59.9096 36.8959 57.0113 41.4012 51.9592L58.4173 32.8573C60.6944 30.3017 60.4903 26.347 57.9604 24.0418V24.0443H57.9591ZM56.551 31.1976L39.5349 50.297C35.5045 54.8203 29.7195 57.413 23.6662 57.413H8.75252C5.30488 57.413 2.50158 54.6097 2.50158 51.1621V38.6615C2.50158 35.2139 5.30488 32.4106 8.75252 32.4106H33.3969C35.6598 32.4106 37.5043 34.2538 37.5043 36.518C37.5043 38.5486 35.9922 40.2955 34.0091 40.5779L18.6051 42.4211C17.9197 42.5006 17.4307 43.1232 17.5128 43.8112C17.5924 44.4966 18.2175 45.0036 18.9029 44.9035L34.3339 43.0577C36.8895 42.6932 38.9496 40.8603 39.6992 38.4972L50.9406 26.1468C51.6183 25.4023 52.5476 24.9646 53.5552 24.9172C54.5602 24.8671 55.5306 25.2175 56.2751 25.9004C57.7974 27.2879 57.9206 29.665 56.5498 31.2053V31.1976H56.551Z" fill="#E61C83"/>
</svg>
