<svg width="53" height="53" viewBox="0 0 53 53" fill="none" xmlns="http://www.w3.org/2000/svg">
<path d="M17.6453 0C10.3465 0 4.41022 5.93633 4.41022 13.2351C4.41022 20.5339 10.3465 26.4703 17.6453 26.4703C24.9442 26.4703 30.8805 20.5339 30.8805 13.2351C30.8805 5.93633 24.9442 0 17.6453 0ZM17.6453 24.2629C11.5647 24.2629 6.61607 19.3157 6.61607 13.2336C6.61607 7.15155 11.5633 2.20437 17.6453 2.20437C23.7274 2.20437 28.6746 7.15155 28.6746 13.2336C28.6746 19.3157 23.7274 24.2629 17.6453 24.2629ZM11.0293 30.8805H24.2644V33.0863H11.0293C6.1639 33.0863 2.20585 37.0429 2.20585 41.9097V52.939H0V41.9097C0 35.8291 4.94718 30.8805 11.0293 30.8805ZM49.1595 25.3428L40.8061 22.5747L32.4527 25.3428C30.1933 26.0924 28.6746 28.1972 28.6746 30.577V38.3652C28.6746 46.3348 37.2065 51.2255 39.8229 52.5329L40.76 53L41.7327 52.6073C44.3595 51.5512 52.9375 47.3998 52.9375 38.3622V30.5741C52.9375 28.1942 51.4204 26.0895 49.1595 25.3398V25.3428ZM50.7317 38.3667C50.7317 46.018 43.2142 49.6354 40.9072 50.5651L40.8581 50.5874L40.809 50.5636C38.4797 49.3989 30.8805 45.0735 30.8805 38.3697V30.5815C30.8805 29.1551 31.7908 27.8907 33.1458 27.4401L40.8061 24.901L48.4663 27.4401C49.8214 27.8907 50.7317 29.1521 50.7317 30.5815V38.3697H50.7302L50.7317 38.3667Z" fill="#E61C83"/>
</svg>
